<svg xmlns="http://www.w3.org/2000/svg" width="22" height="18" viewBox="0 0 22 18"><g><g><path fill="#5ac8fb" d="M19.415 2.825a4.408 4.408 0 0 0 1.98-2.506 8.786 8.786 0 0 1-2.859 1.098c-.892-.957-1.99-1.436-3.291-1.436-1.246 0-2.309.443-3.187 1.33-.88.887-1.318 1.96-1.318 3.217 0 .338.037.685.111 1.042A12.457 12.457 0 0 1 5.67 4.169 12.79 12.79 0 0 1 1.562.812a4.487 4.487 0 0 0-.614 2.294c0 .78.182 1.502.544 2.168.363.667.851 1.206 1.465 1.619A4.436 4.436 0 0 1 .92 6.316v.056c0 1.098.342 2.062 1.026 2.893a4.426 4.426 0 0 0 2.587 1.57c-.39.103-.786.154-1.186.154-.26 0-.544-.023-.85-.07.288.91.818 1.659 1.59 2.245.771.587 1.645.89 2.622.908-1.637 1.295-3.501 1.943-5.593 1.943-.4 0-.763-.019-1.088-.056 2.092 1.36 4.398 2.04 6.918 2.04 1.599 0 3.1-.255 4.505-.766 1.404-.512 2.603-1.197 3.598-2.056a13.711 13.711 0 0 0 2.574-2.963 13.267 13.267 0 0 0 1.61-3.498 13.03 13.03 0 0 0 .517-4.244 9.487 9.487 0 0 0 2.26-2.351 8.91 8.91 0 0 1-2.595.704z"/></g></g></svg>