<svg xmlns="http://www.w3.org/2000/svg" width="18" height="17" viewBox="0 0 18 17"><g><g opacity=".65"><path fill="#fff" d="M16.944 6.928a.582.582 0 0 0-.833 0l-7.117 6.916-7.117-6.916a.582.582 0 0 0-.833 0l-.905.88a.549.549 0 0 0-.181.404c0 .153.06.288.18.405l8.44 8.2a.58.58 0 0 0 .832 0l8.44-8.2a.55.55 0 0 0 .18-.405.55.55 0 0 0-.18-.404zm0-6.758a.582.582 0 0 0-.833 0L8.994 7.086 1.877.17a.582.582 0 0 0-.833 0l-.905.88a.55.55 0 0 0-.181.405c0 .152.06.287.18.404l8.44 8.201a.58.58 0 0 0 .832 0l8.44-8.2a.55.55 0 0 0 .18-.405.55.55 0 0 0-.18-.405z"/></g></g></svg>