<svg xmlns="http://www.w3.org/2000/svg" width="23" height="26" viewBox="0 0 23 26"><g><g><path fill="#fff" d="M7.616 5.35a.6.6 0 0 0 .442.18c.174 0 .324-.06.449-.18a.574.574 0 0 0 .188-.43.575.575 0 0 0-.188-.43.629.629 0 0 0-.45-.18.6.6 0 0 0-.44.18.586.586 0 0 0-.18.43c0 .167.06.31.18.43zm6.89 0c.124.12.274.18.449.18a.6.6 0 0 0 .441-.18c.12-.12.18-.263.18-.43 0-.166-.06-.31-.18-.43a.601.601 0 0 0-.441-.18.628.628 0 0 0-.45.18.574.574 0 0 0-.188.43c0 .167.063.31.188.43zM1.682 8.406c.458 0 .85.156 1.177.469.327.313.49.688.49 1.125v6.721c0 .448-.16.828-.482 1.141a1.635 1.635 0 0 1-1.185.469c-.468 0-.866-.156-1.193-.469A1.519 1.519 0 0 1 0 16.721v-6.72c0-.438.163-.813.49-1.126.327-.313.725-.469 1.193-.469zm17.325.297v10.41c0 .479-.174.885-.523 1.218-.349.334-.768.5-1.258.5H16v3.549c0 .447-.164.828-.49 1.14a1.663 1.663 0 0 1-1.194.47c-.468 0-.866-.157-1.193-.47a1.52 1.52 0 0 1-.49-1.14v-3.548h-2.256v3.548c0 .447-.163.828-.49 1.14a1.663 1.663 0 0 1-1.193.47c-.458 0-.85-.157-1.177-.47a1.52 1.52 0 0 1-.49-1.14l-.016-3.548h-1.21c-.501 0-.926-.167-1.275-.5a1.621 1.621 0 0 1-.523-1.22V8.702zm-3.792-6.33c1.166.573 2.098 1.373 2.795 2.4a5.871 5.871 0 0 1 1.046 3.367H3.94a5.87 5.87 0 0 1 1.046-3.368c.697-1.026 1.634-1.826 2.811-2.399L6.636.325c-.077-.135-.05-.24.081-.312.142-.063.25-.031.327.094L8.221 2.17a8.349 8.349 0 0 1 3.285-.657c1.155 0 2.25.22 3.285.657L15.968.107c.076-.125.185-.157.327-.094.13.073.158.177.082.312zM23.012 10v6.721c0 .448-.163.828-.49 1.141a1.663 1.663 0 0 1-1.193.469c-.458 0-.85-.156-1.177-.469a1.52 1.52 0 0 1-.49-1.141v-6.72c0-.449.163-.827.49-1.134.327-.307.72-.461 1.177-.461.468 0 .866.154 1.193.461.327.307.49.685.49 1.133z"/></g></g></svg>