<svg xmlns="http://www.w3.org/2000/svg" width="20" height="28" viewBox="0 0 20 28"><g><g><path fill="#fff" d="M17.64 3.255c0 .698-.874 3.396-2.623 8.094l-1.861-.328 1.813-5.125c.774-2.344 1.463-3.516 2.067-3.516.403 0 .605.292.605.875zm-6.91 13.508c.186.036.39.073.613.11l.525.085c-.36.26-.737.61-1.13 1.047l-.524-1.375c.159.052.33.096.517.133zM5.73 2.044a.505.505 0 0 1 .461-.273c.509 0 1.161 1.146 1.956 3.437l1.925 5.484a20.868 20.868 0 0 0-1.193-.078c-.33 0-.589.053-.78.157C6.413 6.364 5.57 3.65 5.57 2.63c0-.208.053-.403.159-.586zm-1.01 11.711c.27-.281.511-.422.723-.422.308 0 .637.167.986.5.35.334.676.756.979 1.266a19.088 19.088 0 0 1 1.264 2.516c.34.812.509 1.343.509 1.593a.628.628 0 0 1-.183.422c-.122.136-.257.203-.406.203-.36 0-.89-.364-1.59-1.094a15.016 15.016 0 0 1-1.869-2.39c-.546-.865-.819-1.484-.819-1.86 0-.208.135-.453.406-.734zm-2.49 4.555c.287-.464.658-.695 1.114-.695.308 0 .925.578 1.853 1.734.928 1.156 1.392 1.912 1.392 2.265 0 .125-.078.232-.231.32a.858.858 0 0 1-.422.134c-.594 0-1.298-.542-2.115-1.625-.085-.125-.403-.521-.954-1.188-.35.344-.525.693-.525 1.047 0 .844.448 1.672 1.344 2.484.896.813 1.778 1.22 2.648 1.22.573 0 1.074-.19 1.503-.571.43-.38.644-.847.644-1.399 0-.145-.01-.255-.032-.328.35 0 .567-.01.652-.031.096 2.146.87 3.27 2.322 3.375 0-.021.021-.094.064-.219l.048-.187c0-.313-.099-.768-.295-1.368-.196-.598-.294-1.06-.294-1.382 0-.719.236-1.432.708-2.141a6.714 6.714 0 0 1 1.726-1.781c.339-.25.832-.49 1.479-.719.72-.27 1.23-.552 1.526-.844-.042-.375-.143-.661-.302-.859a.804.804 0 0 0-.636-.297h-.366a9.75 9.75 0 0 1-1.113 0c-.435-.02-.885-.042-1.352-.062-.467-.021-.93-.081-1.391-.18a7.431 7.431 0 0 1-1.233-.367 2.21 2.21 0 0 1-.883-.625 1.412 1.412 0 0 1-.342-.938c0-.312.064-.494.191-.547.127-.114.387-.172.78-.172 1.219 0 2.653.139 4.302.415 1.648.276 2.77.669 3.363 1.18.212.187.374.479.485.874.112.396.173.719.183.969.01.25.016.599.016 1.047 0 2.687-.806 4.912-2.417 6.672-1.644 1.77-3.669 2.656-6.076 2.656-1.664 0-3.157-.427-4.477-1.281-1.32-.855-2.293-2.037-2.918-3.547-.265-.656-.398-1.198-.398-1.625 0-.48.143-.95.43-1.414zm-.508 6.031c1.155 1.4 2.523 2.398 4.103 2.992 1.187.438 2.37.656 3.547.656 1.611 0 3.085-.286 4.421-.859 1.336-.573 2.454-1.354 3.356-2.344.9-.99 1.6-2.161 2.1-3.515.497-1.354.747-2.813.747-4.375 0-.667-.038-1.242-.112-1.727a6.38 6.38 0 0 0-.413-1.46 2.914 2.914 0 0 0-.93-1.22c-.42-.322-.952-.562-1.599-.718 1.686-4.604 2.529-7.469 2.529-8.594 0-.76-.218-1.396-.652-1.906-.435-.51-1.029-.766-1.782-.766-.392 0-.797.188-1.216.563a6.216 6.216 0 0 0-1.121 1.351 18.6 18.6 0 0 0-1.026 1.922 28.58 28.58 0 0 0-.86 1.992 209.6 209.6 0 0 0-.69 1.852c-.245.661-.398 1.076-.462 1.242a31.52 31.52 0 0 0-.127-.36C9.477 3.017 7.754-.01 6.364-.01c-.826 0-1.457.264-1.892.79-.435.526-.652 1.205-.652 2.038 0 1.094.864 4.047 2.593 8.86-.435-.156-.806-.234-1.114-.234-.647 0-1.293.317-1.94.953-.647.635-.97 1.276-.97 1.922 0 .312.148.854.445 1.625-.997.27-1.72.729-2.17 1.375-.452.645-.677 1.494-.677 2.546 0 1.584.578 3.076 1.734 4.477z"/></g></g></svg>