<svg xmlns="http://www.w3.org/2000/svg" width="25" height="21" viewBox="0 0 25 21"><g><g><path fill="#fff" d="M11.551 10.468c-.26.255-.39.565-.39.93a.42.42 0 0 1-.126.315.438.438 0 0 1-.32.123.438.438 0 0 1-.322-.123.42.42 0 0 1-.125-.315c0-.602.218-1.117.655-1.546A2.171 2.171 0 0 1 12.5 9.21c.13 0 .237.04.32.123a.421.421 0 0 1 .126.314.42.42 0 0 1-.125.315.44.44 0 0 1-.321.123c-.372 0-.688.128-.949.383zm.949-2.544c-.986 0-1.828.342-2.525 1.026-.698.684-1.046 1.509-1.046 2.476 0 .966.348 1.791 1.046 2.475.697.684 1.539 1.026 2.525 1.026s1.828-.342 2.525-1.026c.698-.684 1.046-1.509 1.046-2.475 0-.967-.348-1.792-1.046-2.476-.697-.684-1.54-1.026-2.525-1.026zM1.786 17.526h21.428v1.75H1.786zm10.714-.848c-1.479 0-2.741-.513-3.788-1.54-1.046-1.025-1.57-2.263-1.57-3.712 0-1.45.524-2.688 1.57-3.714 1.047-1.026 2.31-1.539 3.788-1.539 1.479 0 2.741.513 3.788 1.539 1.046 1.026 1.57 2.263 1.57 3.714 0 1.45-.524 2.687-1.57 3.713-1.047 1.026-2.31 1.539-3.788 1.539zM3.57.893H8.93v1.751H3.57zM1.786 3.52h8.984l.893-1.751h11.551V5.27H1.786zM24.476.53a1.738 1.738 0 0 0-1.262-.513H1.786C1.293.018.872.19.523.531A1.67 1.67 0 0 0 0 1.77v17.508c0 .483.174.895.523 1.237.349.342.77.513 1.263.513h21.428c.493 0 .914-.17 1.263-.513A1.67 1.67 0 0 0 25 19.276V1.77A1.67 1.67 0 0 0 24.477.53z"/></g></g></svg>